<svg width="138" height="36" viewBox="0 0 138 36" fill="none" xmlns="http://www.w3.org/2000/svg">
<rect width="36" height="36" rx="4" fill="url(#paint0_radial_265_5657)"/>
<path d="M13.3997 12.32L21.8897 9.49C25.6997 8.22 27.7697 10.3 26.5097 14.11L23.6797 22.6C21.7797 28.31 18.6597 28.31 16.7597 22.6L15.9197 20.08L13.3997 19.24C7.68969 17.34 7.68969 14.23 13.3997 12.32Z" stroke="white" stroke-width="1.5" stroke-linecap="round" stroke-linejoin="round"/>
<path d="M16.1094 19.65L19.6894 16.06" stroke="white" stroke-width="1.5" stroke-linecap="round" stroke-linejoin="round"/>
<path d="M52.904 27.588C52.744 27.588 52.536 27.564 52.28 27.516C52.024 27.468 51.76 27.372 51.488 27.228C51.232 27.1 51.016 26.892 50.84 26.604C50.664 26.316 50.576 25.932 50.576 25.452C50.576 25.052 50.656 24.532 50.816 23.892C50.976 23.236 51.248 22.284 51.632 21.036C51.92 20.092 52.2 19.164 52.472 18.252C52.76 17.324 52.992 16.364 53.168 15.372C53.36 14.38 53.456 13.324 53.456 12.204C53.456 11.548 53.416 10.996 53.336 10.548C53.256 10.1 53.104 9.764 52.88 9.54C52.672 9.3 52.376 9.18 51.992 9.18C51.608 9.18 51.272 9.284 50.984 9.492C50.696 9.7 50.456 9.98 50.264 10.332C50.072 10.668 49.928 11.044 49.832 11.46C49.736 11.876 49.688 12.292 49.688 12.708C49.688 13.412 49.808 13.996 50.048 14.46C49.264 14.46 48.696 14.276 48.344 13.908C47.992 13.54 47.816 13.084 47.816 12.54C47.816 12.06 47.936 11.564 48.176 11.052C48.416 10.54 48.744 10.076 49.16 9.66C49.592 9.228 50.088 8.884 50.648 8.628C51.208 8.356 51.808 8.22 52.448 8.22C53.536 8.22 54.36 8.62 54.92 9.42C55.496 10.22 55.784 11.356 55.784 12.828C55.784 13.932 55.632 15.084 55.328 16.284C55.04 17.468 54.672 18.764 54.224 20.172C54.064 20.684 53.872 21.252 53.648 21.876C53.44 22.484 53.248 23.116 53.072 23.772C52.912 24.412 52.832 25.052 52.832 25.692C52.832 25.996 52.864 26.204 52.928 26.316C53.008 26.444 53.152 26.508 53.36 26.508C53.792 26.508 54.248 26.324 54.728 25.956C55.224 25.588 55.72 25.092 56.216 24.468C56.712 23.844 57.184 23.148 57.632 22.38C58.096 21.612 58.52 20.828 58.904 20.028C59.288 19.212 59.608 18.444 59.864 17.724C60.12 16.988 60.288 16.348 60.368 15.804C60.976 15.804 61.448 15.972 61.784 16.308C62.12 16.644 62.288 16.964 62.288 17.268C62.288 17.428 62.216 17.7 62.072 18.084C61.944 18.468 61.72 19.036 61.4 19.788C61.144 20.396 60.88 21.044 60.608 21.732C60.336 22.404 60.104 23.076 59.912 23.748C59.736 24.404 59.648 25.02 59.648 25.596C59.648 25.916 59.688 26.148 59.768 26.292C59.864 26.436 60.032 26.508 60.272 26.508C60.72 26.508 61.232 26.284 61.808 25.836C62.4 25.404 63.008 24.812 63.632 24.06C64.256 23.292 64.864 22.436 65.456 21.492C66.048 20.532 66.584 19.54 67.064 18.516C67.544 17.492 67.92 16.484 68.192 15.492C68.48 14.5 68.624 13.596 68.624 12.78C68.624 11.9 68.464 11.276 68.144 10.908C67.84 10.54 67.456 10.276 66.992 10.116C67.28 9.652 67.584 9.316 67.904 9.108C68.24 8.884 68.536 8.772 68.792 8.772C69.16 8.772 69.536 9.012 69.92 9.492C70.32 9.956 70.52 10.692 70.52 11.7C70.52 12.548 70.352 13.524 70.016 14.628C69.696 15.732 69.248 16.884 68.672 18.084C68.112 19.268 67.464 20.428 66.728 21.564C66.008 22.684 65.232 23.7 64.4 24.612C63.584 25.524 62.76 26.244 61.928 26.772C61.096 27.316 60.304 27.588 59.552 27.588C59.136 27.588 58.76 27.5 58.424 27.324C58.104 27.164 57.848 26.924 57.656 26.604C57.48 26.3 57.392 25.94 57.392 25.524C57.392 25.332 57.416 25.132 57.464 24.924C57.512 24.716 57.568 24.508 57.632 24.3C56.848 25.292 56.056 26.084 55.256 26.676C54.472 27.284 53.688 27.588 52.904 27.588ZM72.0965 26.556C71.0725 26.556 70.2805 26.276 69.7205 25.716C69.1765 25.172 68.9045 24.484 68.9045 23.652C68.9045 22.948 69.0805 22.204 69.4325 21.42C69.8005 20.62 70.2885 19.876 70.8965 19.188C71.5045 18.484 72.1765 17.916 72.9125 17.484C73.6485 17.052 74.3845 16.836 75.1205 16.836C75.5365 16.836 75.9285 16.948 76.2965 17.172C76.6805 17.38 76.8725 17.804 76.8725 18.444C76.8725 19.052 76.6965 19.62 76.3445 20.148C75.9925 20.676 75.5205 21.148 74.9285 21.564C74.3365 21.98 73.6805 22.324 72.9605 22.596C72.2565 22.852 71.5445 23.02 70.8245 23.1C70.8085 23.164 70.7925 23.236 70.7765 23.316C70.7765 23.38 70.7765 23.492 70.7765 23.652C70.7765 23.732 70.7845 23.876 70.8005 24.084C70.8325 24.276 70.9045 24.484 71.0165 24.708C71.1285 24.932 71.3125 25.124 71.5685 25.284C71.8245 25.444 72.1765 25.524 72.6245 25.524C73.2965 25.524 73.9685 25.34 74.6405 24.972C75.3285 24.588 75.9685 24.084 76.5605 23.46C77.1685 22.836 77.6725 22.14 78.0725 21.372L78.5525 21.756C78.1205 22.716 77.5605 23.556 76.8725 24.276C76.2005 24.996 75.4485 25.556 74.6165 25.956C73.8005 26.356 72.9605 26.556 72.0965 26.556ZM71.0885 22.212C71.5045 22.164 71.9685 22.02 72.4805 21.78C72.9925 21.54 73.4805 21.236 73.9445 20.868C74.4245 20.5 74.8165 20.1 75.1205 19.668C75.4245 19.22 75.5765 18.772 75.5765 18.324C75.5765 18.148 75.5445 18.028 75.4805 17.964C75.4165 17.9 75.3125 17.868 75.1685 17.868C74.8005 17.868 74.4165 18.004 74.0165 18.276C73.6165 18.532 73.2245 18.876 72.8405 19.308C72.4565 19.724 72.1125 20.188 71.8085 20.7C71.5045 21.212 71.2645 21.716 71.0885 22.212ZM89.3186 27.588C88.3906 27.588 87.5026 27.428 86.6546 27.108C85.8226 26.788 85.1426 26.3 84.6146 25.644C84.0866 24.988 83.8226 24.172 83.8226 23.196C83.8226 22.332 84.0146 21.66 84.3986 21.18C84.7826 20.684 85.2626 20.34 85.8386 20.148C86.4146 19.956 86.9746 19.86 87.5186 19.86C87.0066 20.404 86.6146 20.964 86.3426 21.54C86.0866 22.116 85.9586 22.668 85.9586 23.196C85.9586 23.74 86.0946 24.252 86.3666 24.732C86.6546 25.196 87.0786 25.572 87.6386 25.86C88.1986 26.164 88.8946 26.316 89.7266 26.316C90.4466 26.316 91.1426 26.196 91.8146 25.956C92.5026 25.716 93.0626 25.356 93.4946 24.876C93.9426 24.396 94.1666 23.796 94.1666 23.076C94.1666 22.42 93.9746 21.86 93.5906 21.396C93.2226 20.916 92.7426 20.492 92.1506 20.124C91.5586 19.74 90.9346 19.38 90.2786 19.044C89.6226 18.692 88.9986 18.316 88.4066 17.916C87.8146 17.516 87.3266 17.052 86.9426 16.524C86.5746 15.996 86.3906 15.364 86.3906 14.628C86.3906 13.972 86.5506 13.276 86.8706 12.54C87.2066 11.788 87.6786 11.084 88.2866 10.428C88.8946 9.772 89.6306 9.244 90.4946 8.844C91.3586 8.428 92.3186 8.22 93.3746 8.22C94.4786 8.22 95.2546 8.452 95.7026 8.916C96.1506 9.38 96.3746 9.988 96.3746 10.74C96.3746 11.332 96.2706 11.964 96.0626 12.636C95.8546 13.308 95.5986 13.948 95.2946 14.556C95.0066 15.164 94.7266 15.684 94.4546 16.116C94.1026 16.036 93.8386 15.9 93.6626 15.708C93.4866 15.5 93.3986 15.228 93.3986 14.892C93.3986 14.556 93.4626 14.18 93.5906 13.764C93.7346 13.348 93.8946 12.916 94.0706 12.468C94.2626 12.02 94.4226 11.588 94.5506 11.172C94.6946 10.74 94.7666 10.364 94.7666 10.044C94.7666 9.756 94.6786 9.532 94.5026 9.372C94.3426 9.212 94.0066 9.132 93.4946 9.132C92.7266 9.132 92.0226 9.3 91.3826 9.636C90.7426 9.972 90.1826 10.396 89.7026 10.908C89.2386 11.42 88.8786 11.964 88.6226 12.54C88.3666 13.1 88.2386 13.612 88.2386 14.076C88.2386 14.652 88.4226 15.148 88.7906 15.564C89.1586 15.964 89.6306 16.332 90.2066 16.668C90.7986 17.004 91.4146 17.34 92.0546 17.676C92.7106 18.012 93.3266 18.388 93.9026 18.804C94.4946 19.22 94.9746 19.716 95.3426 20.292C95.7106 20.868 95.8946 21.572 95.8946 22.404C95.8946 23.236 95.7026 23.972 95.3186 24.612C94.9506 25.252 94.4466 25.788 93.8066 26.22C93.1666 26.668 92.4546 27.004 91.6706 27.228C90.9026 27.468 90.1186 27.588 89.3186 27.588ZM98.4478 26.412C98.0958 26.412 97.8398 26.14 97.6798 25.596C97.5358 25.052 97.4638 24.42 97.4638 23.7C97.4638 22.964 97.5838 22.076 97.8238 21.036C98.0798 19.996 98.4158 18.9 98.8318 17.748C99.2638 16.596 99.7358 15.468 100.248 14.364C100.776 13.26 101.312 12.26 101.856 11.364C102.416 10.452 102.944 9.724 103.44 9.18C103.952 8.636 104.4 8.364 104.784 8.364C105.12 8.364 105.376 8.548 105.552 8.916C105.728 9.284 105.816 9.668 105.816 10.068C105.816 10.5 105.712 11.036 105.504 11.676C105.312 12.3 105.04 12.972 104.688 13.692C104.336 14.412 103.92 15.124 103.44 15.828C102.976 16.516 102.464 17.148 101.904 17.724C101.36 18.3 100.792 18.764 100.2 19.116C99.9918 19.66 99.8238 20.172 99.6958 20.652C99.5838 21.116 99.5038 21.556 99.4558 21.972C99.4078 22.388 99.3838 22.796 99.3838 23.196C99.3838 23.276 99.3838 23.364 99.3838 23.46C99.3998 23.54 99.4078 23.62 99.4078 23.7C99.4718 23.604 99.5758 23.356 99.7198 22.956C99.8638 22.556 100.056 22.092 100.296 21.564C100.552 21.02 100.864 20.492 101.232 19.98C101.6 19.452 102.032 19.02 102.528 18.684C103.024 18.332 103.592 18.156 104.232 18.156C104.776 18.156 105.2 18.284 105.504 18.54C105.808 18.78 106.024 19.084 106.152 19.452C106.28 19.804 106.344 20.164 106.344 20.532C106.344 21.044 106.256 21.524 106.08 21.972C105.92 22.42 105.752 22.844 105.576 23.244C105.416 23.628 105.336 23.996 105.336 24.348C105.336 24.636 105.4 24.836 105.528 24.948C105.656 25.06 105.808 25.116 105.984 25.116C106.336 25.116 106.744 24.94 107.208 24.588C107.688 24.236 108.16 23.772 108.624 23.196C109.104 22.604 109.512 21.956 109.848 21.252L110.232 21.66C109.864 22.46 109.432 23.196 108.936 23.868C108.44 24.54 107.896 25.076 107.304 25.476C106.712 25.876 106.072 26.076 105.384 26.076C104.776 26.076 104.312 25.916 103.992 25.596C103.672 25.276 103.512 24.876 103.512 24.396C103.512 24.06 103.568 23.692 103.68 23.292C103.808 22.876 103.928 22.46 104.04 22.044C104.152 21.628 104.208 21.252 104.208 20.916C104.208 20.532 104.12 20.268 103.944 20.124C103.784 19.98 103.584 19.908 103.344 19.908C102.944 19.908 102.584 20.068 102.264 20.388C101.944 20.692 101.656 21.092 101.4 21.588C101.144 22.084 100.904 22.612 100.68 23.172C100.456 23.716 100.232 24.236 100.008 24.732C99.7838 25.228 99.5438 25.628 99.2878 25.932C99.0477 26.252 98.7678 26.412 98.4478 26.412ZM100.704 17.58C101.12 17.212 101.52 16.772 101.904 16.26C102.288 15.748 102.64 15.22 102.96 14.676C103.296 14.116 103.584 13.58 103.824 13.068C104.08 12.54 104.28 12.068 104.424 11.652C104.568 11.236 104.648 10.916 104.664 10.692C104.664 10.676 104.664 10.668 104.664 10.668C104.664 10.652 104.664 10.636 104.664 10.62C104.568 10.62 104.36 10.82 104.04 11.22C103.736 11.604 103.376 12.132 102.96 12.804C102.56 13.46 102.152 14.204 101.736 15.036C101.336 15.868 100.992 16.716 100.704 17.58ZM110.547 26.628C110.019 26.628 109.563 26.452 109.179 26.1C108.779 25.748 108.579 25.22 108.579 24.516C108.579 23.956 108.707 23.348 108.963 22.692C109.219 22.036 109.571 21.388 110.019 20.748C110.467 20.108 110.979 19.532 111.555 19.02C112.131 18.492 112.747 18.068 113.403 17.748C114.059 17.428 114.715 17.268 115.371 17.268C116.059 17.268 116.643 17.444 117.123 17.796C117.603 18.148 117.843 18.612 117.843 19.188C117.843 19.62 117.691 19.932 117.387 20.124C117.083 20.316 116.723 20.372 116.307 20.292C116.339 20.148 116.363 20.004 116.379 19.86C116.411 19.716 116.427 19.564 116.427 19.404C116.427 19.084 116.363 18.796 116.235 18.54C116.107 18.284 115.835 18.156 115.419 18.156C114.971 18.156 114.515 18.308 114.051 18.612C113.587 18.916 113.139 19.316 112.707 19.812C112.291 20.292 111.915 20.828 111.579 21.42C111.243 21.996 110.979 22.564 110.787 23.124C110.595 23.684 110.499 24.188 110.499 24.636C110.499 25.148 110.683 25.404 111.051 25.404C111.419 25.404 111.827 25.228 112.275 24.876C112.723 24.508 113.171 24.052 113.619 23.508C114.083 22.964 114.523 22.412 114.939 21.852C115.355 21.276 115.715 20.788 116.019 20.388C116.067 20.308 116.131 20.268 116.211 20.268C116.275 20.284 116.395 20.324 116.571 20.388C116.763 20.436 116.939 20.516 117.099 20.628C117.259 20.74 117.339 20.884 117.339 21.06C117.339 21.22 117.267 21.428 117.123 21.684C116.995 21.924 116.835 22.196 116.643 22.5C116.467 22.788 116.307 23.084 116.163 23.388C116.035 23.676 115.971 23.956 115.971 24.228C115.971 24.436 116.027 24.636 116.139 24.828C116.251 25.004 116.435 25.092 116.691 25.092C117.075 25.092 117.611 24.812 118.299 24.252C119.003 23.676 119.715 22.708 120.435 21.348L120.891 21.804C120.507 22.668 120.043 23.436 119.499 24.108C118.971 24.764 118.411 25.276 117.819 25.644C117.227 26.028 116.627 26.22 116.019 26.22C115.363 26.22 114.875 26.012 114.555 25.596C114.235 25.18 114.059 24.732 114.027 24.252C114.027 24.22 114.027 24.196 114.027 24.18C114.027 24.164 114.027 24.148 114.027 24.132C113.387 24.9 112.795 25.508 112.251 25.956C111.723 26.404 111.155 26.628 110.547 26.628ZM124.307 26.124C123.715 26.124 123.235 25.964 122.867 25.644C122.499 25.34 122.315 24.924 122.315 24.396C122.315 23.948 122.427 23.468 122.651 22.956C122.875 22.444 123.099 21.94 123.323 21.444C123.563 20.948 123.683 20.508 123.683 20.124C123.683 19.756 123.563 19.452 123.323 19.212C123.083 18.956 122.803 18.748 122.483 18.588C122.131 19.468 121.731 20.324 121.283 21.156C120.851 21.972 120.499 22.612 120.227 23.076L119.867 22.38C120.091 21.964 120.387 21.372 120.755 20.604C121.123 19.836 121.475 18.98 121.811 18.036C121.651 17.876 121.571 17.66 121.571 17.388C121.571 16.972 121.699 16.58 121.955 16.212C122.211 15.844 122.459 15.66 122.699 15.66C122.891 15.66 123.027 15.772 123.107 15.996C123.203 16.204 123.251 16.348 123.251 16.428C123.251 16.508 123.211 16.652 123.131 16.86C123.067 17.068 123.019 17.22 122.987 17.316C123.003 17.492 123.139 17.668 123.395 17.844C123.667 18.004 123.971 18.196 124.307 18.42C124.643 18.644 124.939 18.924 125.195 19.26C125.451 19.596 125.579 20.02 125.579 20.532C125.579 20.996 125.475 21.468 125.267 21.948C125.059 22.428 124.851 22.876 124.643 23.292C124.435 23.708 124.331 24.068 124.331 24.372C124.331 24.596 124.387 24.748 124.499 24.828C124.627 24.892 124.771 24.924 124.931 24.924C125.315 24.924 125.715 24.812 126.131 24.588C126.547 24.348 126.955 24.044 127.355 23.676C127.755 23.308 128.107 22.924 128.411 22.524C128.715 22.108 128.947 21.732 129.107 21.396L129.683 21.828C129.379 22.516 128.939 23.196 128.363 23.868C127.787 24.524 127.147 25.068 126.443 25.5C125.739 25.916 125.027 26.124 124.307 26.124ZM131.37 26.556C130.346 26.556 129.554 26.276 128.994 25.716C128.45 25.172 128.178 24.484 128.178 23.652C128.178 22.948 128.354 22.204 128.706 21.42C129.074 20.62 129.562 19.876 130.17 19.188C130.778 18.484 131.45 17.916 132.186 17.484C132.922 17.052 133.658 16.836 134.394 16.836C134.81 16.836 135.202 16.948 135.57 17.172C135.954 17.38 136.146 17.804 136.146 18.444C136.146 19.052 135.97 19.62 135.618 20.148C135.266 20.676 134.794 21.148 134.202 21.564C133.61 21.98 132.954 22.324 132.234 22.596C131.53 22.852 130.818 23.02 130.098 23.1C130.082 23.164 130.066 23.236 130.05 23.316C130.05 23.38 130.05 23.492 130.05 23.652C130.05 23.732 130.058 23.876 130.074 24.084C130.106 24.276 130.178 24.484 130.29 24.708C130.402 24.932 130.586 25.124 130.842 25.284C131.098 25.444 131.45 25.524 131.898 25.524C132.57 25.524 133.242 25.34 133.914 24.972C134.602 24.588 135.242 24.084 135.834 23.46C136.442 22.836 136.946 22.14 137.346 21.372L137.826 21.756C137.394 22.716 136.834 23.556 136.146 24.276C135.474 24.996 134.722 25.556 133.89 25.956C133.074 26.356 132.234 26.556 131.37 26.556ZM130.362 22.212C130.778 22.164 131.242 22.02 131.754 21.78C132.266 21.54 132.754 21.236 133.218 20.868C133.698 20.5 134.09 20.1 134.394 19.668C134.698 19.22 134.85 18.772 134.85 18.324C134.85 18.148 134.818 18.028 134.754 17.964C134.69 17.9 134.586 17.868 134.442 17.868C134.074 17.868 133.69 18.004 133.29 18.276C132.89 18.532 132.498 18.876 132.114 19.308C131.73 19.724 131.386 20.188 131.082 20.7C130.778 21.212 130.538 21.716 130.362 22.212Z" fill="url(#paint1_linear_265_5657)"/>
<defs>
<radialGradient id="paint0_radial_265_5657" cx="0" cy="0" r="1" gradientUnits="userSpaceOnUse" gradientTransform="translate(18 18) rotate(90) scale(18)">
<stop stop-color="#50D1F1"/>
<stop offset="1" stop-color="#5574F4"/>
</radialGradient>
<linearGradient id="paint1_linear_265_5657" x1="47" y1="4" x2="137" y2="33" gradientUnits="userSpaceOnUse">
<stop stop-color="#272E4A"/>
<stop offset="1" stop-color="#5574F4"/>
</linearGradient>
</defs>
</svg>
